<mxfile host="app.diagrams.net" modified="2023-01-16T13:34:15.586Z" agent="5.0 (Windows NT 10.0; Win64; x64) AppleWebKit/537.36 (KHTML, like Gecko) Chrome/108.0.0.0 Safari/537.36" version="20.8.5" etag="Q3zJF5MB5I5DtkQnerzN" type="github">
  <diagram id="-b40opP00CZqNUi7Pyji" name="ページ1">
    <mxGraphModel dx="430" dy="442" grid="1" gridSize="10" guides="1" tooltips="1" connect="1" arrows="1" fold="1" page="1" pageScale="1" pageWidth="827" pageHeight="1169" math="0" shadow="0">
      <root>
        <mxCell id="0" />
        <mxCell id="1" parent="0" />
        <mxCell id="IE9pjUHZPNTOEFuHBonJ-1" value="開始" style="rounded=1;whiteSpace=wrap;html=1;" vertex="1" parent="1">
          <mxGeometry x="250" y="30" width="130" height="30" as="geometry" />
        </mxCell>
        <mxCell id="IE9pjUHZPNTOEFuHBonJ-3" value="終了" style="rounded=1;whiteSpace=wrap;html=1;" vertex="1" parent="1">
          <mxGeometry x="60" y="1730" width="130" height="30" as="geometry" />
        </mxCell>
        <mxCell id="IE9pjUHZPNTOEFuHBonJ-4" value="" style="endArrow=classic;html=1;rounded=0;exitX=0.5;exitY=1;exitDx=0;exitDy=0;" edge="1" parent="1" source="IE9pjUHZPNTOEFuHBonJ-1">
          <mxGeometry width="50" height="50" relative="1" as="geometry">
            <mxPoint x="350" y="110" as="sourcePoint" />
            <mxPoint x="315" y="110" as="targetPoint" />
          </mxGeometry>
        </mxCell>
        <mxCell id="IE9pjUHZPNTOEFuHBonJ-5" value="" style="endArrow=classic;html=1;rounded=0;" edge="1" parent="1" target="IE9pjUHZPNTOEFuHBonJ-3">
          <mxGeometry width="50" height="50" relative="1" as="geometry">
            <mxPoint x="125" y="1690" as="sourcePoint" />
            <mxPoint x="135" y="1580" as="targetPoint" />
          </mxGeometry>
        </mxCell>
        <mxCell id="IE9pjUHZPNTOEFuHBonJ-7" value="" style="endArrow=classic;html=1;rounded=0;exitX=0.5;exitY=1;exitDx=0;exitDy=0;" edge="1" parent="1">
          <mxGeometry width="50" height="50" relative="1" as="geometry">
            <mxPoint x="314.5" y="140" as="sourcePoint" />
            <mxPoint x="314.5" y="190" as="targetPoint" />
          </mxGeometry>
        </mxCell>
        <mxCell id="IE9pjUHZPNTOEFuHBonJ-8" value="人参が好きか" style="rhombus;whiteSpace=wrap;html=1;" vertex="1" parent="1">
          <mxGeometry x="245" y="190" width="140" height="40" as="geometry" />
        </mxCell>
        <mxCell id="IE9pjUHZPNTOEFuHBonJ-11" value="no" style="text;html=1;strokeColor=none;fillColor=none;align=center;verticalAlign=middle;whiteSpace=wrap;rounded=0;" vertex="1" parent="1">
          <mxGeometry x="200" y="210" width="60" height="30" as="geometry" />
        </mxCell>
        <mxCell id="IE9pjUHZPNTOEFuHBonJ-12" value="yes" style="text;html=1;strokeColor=none;fillColor=none;align=center;verticalAlign=middle;whiteSpace=wrap;rounded=0;" vertex="1" parent="1">
          <mxGeometry x="385" y="210" width="60" height="30" as="geometry" />
        </mxCell>
        <mxCell id="IE9pjUHZPNTOEFuHBonJ-13" value="" style="endArrow=none;html=1;rounded=0;entryX=0.05;entryY=0.425;entryDx=0;entryDy=0;entryPerimeter=0;" edge="1" parent="1">
          <mxGeometry width="50" height="50" relative="1" as="geometry">
            <mxPoint x="385" y="210" as="sourcePoint" />
            <mxPoint x="447" y="210" as="targetPoint" />
          </mxGeometry>
        </mxCell>
        <mxCell id="IE9pjUHZPNTOEFuHBonJ-19" value="具材として次の野菜を用意する" style="rounded=0;whiteSpace=wrap;html=1;" vertex="1" parent="1">
          <mxGeometry x="255" y="110" width="120" height="40" as="geometry" />
        </mxCell>
        <mxCell id="IE9pjUHZPNTOEFuHBonJ-32" value="" style="edgeStyle=orthogonalEdgeStyle;rounded=0;orthogonalLoop=1;jettySize=auto;html=1;" edge="1" parent="1" source="IE9pjUHZPNTOEFuHBonJ-20" target="IE9pjUHZPNTOEFuHBonJ-22">
          <mxGeometry relative="1" as="geometry" />
        </mxCell>
        <mxCell id="IE9pjUHZPNTOEFuHBonJ-20" value="すりおろす" style="rounded=0;whiteSpace=wrap;html=1;" vertex="1" parent="1">
          <mxGeometry x="135" y="260" width="120" height="40" as="geometry" />
        </mxCell>
        <mxCell id="IE9pjUHZPNTOEFuHBonJ-31" value="" style="edgeStyle=orthogonalEdgeStyle;rounded=0;orthogonalLoop=1;jettySize=auto;html=1;" edge="1" parent="1" source="IE9pjUHZPNTOEFuHBonJ-21" target="IE9pjUHZPNTOEFuHBonJ-22">
          <mxGeometry relative="1" as="geometry" />
        </mxCell>
        <mxCell id="IE9pjUHZPNTOEFuHBonJ-21" value="ざく切りにする" style="rounded=0;whiteSpace=wrap;html=1;" vertex="1" parent="1">
          <mxGeometry x="385" y="260" width="120" height="40" as="geometry" />
        </mxCell>
        <mxCell id="IE9pjUHZPNTOEFuHBonJ-30" style="edgeStyle=orthogonalEdgeStyle;rounded=0;orthogonalLoop=1;jettySize=auto;html=1;entryX=0.5;entryY=0;entryDx=0;entryDy=0;" edge="1" parent="1" source="IE9pjUHZPNTOEFuHBonJ-22" target="IE9pjUHZPNTOEFuHBonJ-27">
          <mxGeometry relative="1" as="geometry" />
        </mxCell>
        <mxCell id="IE9pjUHZPNTOEFuHBonJ-22" value="ほうれん草、ピーマン、ナス、ブロッコリーは、適当な大きさに切る" style="rounded=0;whiteSpace=wrap;html=1;" vertex="1" parent="1">
          <mxGeometry x="200" y="360" width="230" height="40" as="geometry" />
        </mxCell>
        <mxCell id="IE9pjUHZPNTOEFuHBonJ-27" value="適当な色合いか" style="rhombus;whiteSpace=wrap;html=1;" vertex="1" parent="1">
          <mxGeometry x="245" y="440" width="140" height="40" as="geometry" />
        </mxCell>
      </root>
    </mxGraphModel>
  </diagram>
</mxfile>
